<mxfile host="app.diagrams.net" modified="2023-10-18T20:31:32.479Z" agent="Mozilla/5.0 (Windows NT 10.0; Win64; x64) AppleWebKit/537.36 (KHTML, like Gecko) Chrome/118.0.0.0 Safari/537.36" etag="FoqCmYhxkSEsei4lRzPA" version="22.0.4" type="device">
  <diagram name="Page-1" id="2YBvvXClWsGukQMizWep">
    <mxGraphModel dx="1235" dy="628" grid="1" gridSize="10" guides="1" tooltips="1" connect="1" arrows="1" fold="1" page="1" pageScale="1" pageWidth="850" pageHeight="1100" math="0" shadow="0">
      <root>
        <mxCell id="0" />
        <mxCell id="1" parent="0" />
        <mxCell id="FtzVDYaoyo5m5slX8wzm-1" value="Admin" style="shape=umlActor;verticalLabelPosition=bottom;verticalAlign=top;html=1;outlineConnect=0;fillColor=#fa6800;fontColor=#000000;strokeColor=#C73500;" parent="1" vertex="1">
          <mxGeometry x="10" y="60" width="30" height="60" as="geometry" />
        </mxCell>
        <mxCell id="FtzVDYaoyo5m5slX8wzm-2" value="Customer" style="shape=umlActor;verticalLabelPosition=bottom;verticalAlign=top;html=1;outlineConnect=0;fillColor=#fa6800;fontColor=#000000;strokeColor=#C73500;" parent="1" vertex="1">
          <mxGeometry x="110" y="60" width="30" height="60" as="geometry" />
        </mxCell>
        <mxCell id="FtzVDYaoyo5m5slX8wzm-4" value="" style="endArrow=none;dashed=1;html=1;rounded=0;" parent="1" edge="1">
          <mxGeometry width="50" height="50" relative="1" as="geometry">
            <mxPoint x="25" y="1170" as="sourcePoint" />
            <mxPoint x="24.5" y="150" as="targetPoint" />
          </mxGeometry>
        </mxCell>
        <mxCell id="FtzVDYaoyo5m5slX8wzm-7" value="Users" style="rounded=0;whiteSpace=wrap;html=1;fillColor=#fa6800;fontColor=#000000;strokeColor=#C73500;" parent="1" vertex="1">
          <mxGeometry x="310" y="60" width="120" height="60" as="geometry" />
        </mxCell>
        <mxCell id="FtzVDYaoyo5m5slX8wzm-8" value="Products" style="rounded=0;whiteSpace=wrap;html=1;fillColor=#fa6800;fontColor=#000000;strokeColor=#C73500;" parent="1" vertex="1">
          <mxGeometry x="500" y="60" width="120" height="60" as="geometry" />
        </mxCell>
        <mxCell id="FtzVDYaoyo5m5slX8wzm-11" value="Cart" style="rounded=0;whiteSpace=wrap;html=1;fillColor=#fa6800;fontColor=#000000;strokeColor=#C73500;" parent="1" vertex="1">
          <mxGeometry x="1070" y="60" width="120" height="60" as="geometry" />
        </mxCell>
        <mxCell id="FtzVDYaoyo5m5slX8wzm-12" value="" style="endArrow=none;dashed=1;html=1;rounded=0;" parent="1" source="eIc7a8zzQg1Sa1_WoRTr-56" edge="1">
          <mxGeometry width="50" height="50" relative="1" as="geometry">
            <mxPoint x="940" y="1170" as="sourcePoint" />
            <mxPoint x="939.5" y="120" as="targetPoint" />
          </mxGeometry>
        </mxCell>
        <mxCell id="FtzVDYaoyo5m5slX8wzm-20" value="" style="endArrow=none;dashed=1;html=1;rounded=0;" parent="1" edge="1" source="eIc7a8zzQg1Sa1_WoRTr-44">
          <mxGeometry width="50" height="50" relative="1" as="geometry">
            <mxPoint x="125" y="1170" as="sourcePoint" />
            <mxPoint x="125" y="150" as="targetPoint" />
          </mxGeometry>
        </mxCell>
        <mxCell id="FtzVDYaoyo5m5slX8wzm-23" value="" style="endArrow=classic;html=1;rounded=0;" parent="1" target="FtzVDYaoyo5m5slX8wzm-38" edge="1">
          <mxGeometry relative="1" as="geometry">
            <mxPoint x="24" y="240" as="sourcePoint" />
            <mxPoint x="370" y="240" as="targetPoint" />
          </mxGeometry>
        </mxCell>
        <mxCell id="FtzVDYaoyo5m5slX8wzm-24" value="sendMessage" style="edgeLabel;resizable=0;html=1;align=center;verticalAlign=middle;" parent="FtzVDYaoyo5m5slX8wzm-23" connectable="0" vertex="1">
          <mxGeometry relative="1" as="geometry">
            <mxPoint x="-14" as="offset" />
          </mxGeometry>
        </mxCell>
        <mxCell id="FtzVDYaoyo5m5slX8wzm-25" value="" style="endArrow=classic;html=1;rounded=0;dashed=1;" parent="1" source="FtzVDYaoyo5m5slX8wzm-38" edge="1">
          <mxGeometry relative="1" as="geometry">
            <mxPoint x="370" y="270" as="sourcePoint" />
            <mxPoint x="24" y="270" as="targetPoint" />
          </mxGeometry>
        </mxCell>
        <mxCell id="FtzVDYaoyo5m5slX8wzm-26" value="return" style="edgeLabel;resizable=0;html=1;align=center;verticalAlign=middle;" parent="FtzVDYaoyo5m5slX8wzm-25" connectable="0" vertex="1">
          <mxGeometry relative="1" as="geometry">
            <mxPoint x="-15" as="offset" />
          </mxGeometry>
        </mxCell>
        <mxCell id="FtzVDYaoyo5m5slX8wzm-31" value="" style="endArrow=classic;html=1;rounded=0;" parent="1" target="FtzVDYaoyo5m5slX8wzm-36" edge="1">
          <mxGeometry relative="1" as="geometry">
            <mxPoint x="25" y="180" as="sourcePoint" />
            <mxPoint x="366" y="180" as="targetPoint" />
          </mxGeometry>
        </mxCell>
        <mxCell id="FtzVDYaoyo5m5slX8wzm-32" value="blockUser" style="edgeLabel;resizable=0;html=1;align=center;verticalAlign=middle;" parent="FtzVDYaoyo5m5slX8wzm-31" connectable="0" vertex="1">
          <mxGeometry relative="1" as="geometry">
            <mxPoint x="-15" as="offset" />
          </mxGeometry>
        </mxCell>
        <mxCell id="FtzVDYaoyo5m5slX8wzm-41" value="" style="endArrow=none;dashed=1;html=1;rounded=0;entryX=0.5;entryY=1;entryDx=0;entryDy=0;" parent="1" target="FtzVDYaoyo5m5slX8wzm-7" edge="1" source="FtzVDYaoyo5m5slX8wzm-36">
          <mxGeometry width="50" height="50" relative="1" as="geometry">
            <mxPoint x="370" y="1170" as="sourcePoint" />
            <mxPoint x="420" y="280" as="targetPoint" />
          </mxGeometry>
        </mxCell>
        <mxCell id="FtzVDYaoyo5m5slX8wzm-42" value="" style="endArrow=classic;html=1;rounded=0;" parent="1" target="FtzVDYaoyo5m5slX8wzm-46" edge="1">
          <mxGeometry relative="1" as="geometry">
            <mxPoint x="25" y="319" as="sourcePoint" />
            <mxPoint x="540" y="319" as="targetPoint" />
          </mxGeometry>
        </mxCell>
        <mxCell id="FtzVDYaoyo5m5slX8wzm-43" value="uploadProduct" style="edgeLabel;resizable=0;html=1;align=center;verticalAlign=middle;" parent="FtzVDYaoyo5m5slX8wzm-42" connectable="0" vertex="1">
          <mxGeometry relative="1" as="geometry">
            <mxPoint x="-15" as="offset" />
          </mxGeometry>
        </mxCell>
        <mxCell id="FtzVDYaoyo5m5slX8wzm-44" value="" style="endArrow=classic;html=1;rounded=0;dashed=1;" parent="1" source="FtzVDYaoyo5m5slX8wzm-46" edge="1">
          <mxGeometry relative="1" as="geometry">
            <mxPoint x="550" y="340" as="sourcePoint" />
            <mxPoint x="25" y="340" as="targetPoint" />
          </mxGeometry>
        </mxCell>
        <mxCell id="FtzVDYaoyo5m5slX8wzm-45" value="return" style="edgeLabel;resizable=0;html=1;align=center;verticalAlign=middle;" parent="FtzVDYaoyo5m5slX8wzm-44" connectable="0" vertex="1">
          <mxGeometry relative="1" as="geometry">
            <mxPoint x="-15" as="offset" />
          </mxGeometry>
        </mxCell>
        <mxCell id="FtzVDYaoyo5m5slX8wzm-52" value="" style="endArrow=classic;html=1;rounded=0;dashed=1;" parent="1" source="FtzVDYaoyo5m5slX8wzm-36" edge="1">
          <mxGeometry relative="1" as="geometry">
            <mxPoint x="365" y="200" as="sourcePoint" />
            <mxPoint x="24" y="200" as="targetPoint" />
          </mxGeometry>
        </mxCell>
        <mxCell id="FtzVDYaoyo5m5slX8wzm-53" value="return" style="edgeLabel;resizable=0;html=1;align=center;verticalAlign=middle;" parent="FtzVDYaoyo5m5slX8wzm-52" connectable="0" vertex="1">
          <mxGeometry relative="1" as="geometry">
            <mxPoint x="-15" as="offset" />
          </mxGeometry>
        </mxCell>
        <mxCell id="FtzVDYaoyo5m5slX8wzm-58" value="" style="endArrow=classic;html=1;rounded=0;" parent="1" target="FtzVDYaoyo5m5slX8wzm-48" edge="1">
          <mxGeometry relative="1" as="geometry">
            <mxPoint x="25" y="399.58000000000004" as="sourcePoint" />
            <mxPoint x="555" y="399.58000000000004" as="targetPoint" />
          </mxGeometry>
        </mxCell>
        <mxCell id="FtzVDYaoyo5m5slX8wzm-59" value="deleteProduct" style="edgeLabel;resizable=0;html=1;align=center;verticalAlign=middle;" parent="FtzVDYaoyo5m5slX8wzm-58" connectable="0" vertex="1">
          <mxGeometry relative="1" as="geometry">
            <mxPoint x="-15" as="offset" />
          </mxGeometry>
        </mxCell>
        <mxCell id="FtzVDYaoyo5m5slX8wzm-60" value="" style="endArrow=classic;html=1;rounded=0;dashed=1;" parent="1" source="FtzVDYaoyo5m5slX8wzm-48" edge="1">
          <mxGeometry relative="1" as="geometry">
            <mxPoint x="555" y="419.58000000000004" as="sourcePoint" />
            <mxPoint x="25" y="419.58000000000004" as="targetPoint" />
          </mxGeometry>
        </mxCell>
        <mxCell id="FtzVDYaoyo5m5slX8wzm-61" value="return" style="edgeLabel;resizable=0;html=1;align=center;verticalAlign=middle;" parent="FtzVDYaoyo5m5slX8wzm-60" connectable="0" vertex="1">
          <mxGeometry relative="1" as="geometry">
            <mxPoint x="-15" as="offset" />
          </mxGeometry>
        </mxCell>
        <mxCell id="FtzVDYaoyo5m5slX8wzm-62" value="" style="endArrow=classic;html=1;rounded=0;" parent="1" target="FtzVDYaoyo5m5slX8wzm-50" edge="1">
          <mxGeometry relative="1" as="geometry">
            <mxPoint x="25" y="479.58000000000004" as="sourcePoint" />
            <mxPoint x="555" y="479.58000000000004" as="targetPoint" />
          </mxGeometry>
        </mxCell>
        <mxCell id="FtzVDYaoyo5m5slX8wzm-63" value="editProduct" style="edgeLabel;resizable=0;html=1;align=center;verticalAlign=middle;" parent="FtzVDYaoyo5m5slX8wzm-62" connectable="0" vertex="1">
          <mxGeometry relative="1" as="geometry">
            <mxPoint x="-15" as="offset" />
          </mxGeometry>
        </mxCell>
        <mxCell id="FtzVDYaoyo5m5slX8wzm-64" value="" style="endArrow=classic;html=1;rounded=0;dashed=1;" parent="1" source="FtzVDYaoyo5m5slX8wzm-50" edge="1">
          <mxGeometry relative="1" as="geometry">
            <mxPoint x="555" y="499.58000000000004" as="sourcePoint" />
            <mxPoint x="25" y="499.58000000000004" as="targetPoint" />
          </mxGeometry>
        </mxCell>
        <mxCell id="FtzVDYaoyo5m5slX8wzm-65" value="return" style="edgeLabel;resizable=0;html=1;align=center;verticalAlign=middle;" parent="FtzVDYaoyo5m5slX8wzm-64" connectable="0" vertex="1">
          <mxGeometry relative="1" as="geometry">
            <mxPoint x="-15" as="offset" />
          </mxGeometry>
        </mxCell>
        <mxCell id="FtzVDYaoyo5m5slX8wzm-72" value="" style="endArrow=classic;html=1;rounded=0;" parent="1" edge="1">
          <mxGeometry relative="1" as="geometry">
            <mxPoint x="25" y="719" as="sourcePoint" />
            <mxPoint x="745" y="719" as="targetPoint" />
          </mxGeometry>
        </mxCell>
        <mxCell id="FtzVDYaoyo5m5slX8wzm-73" value="viewOrder" style="edgeLabel;resizable=0;html=1;align=center;verticalAlign=middle;" parent="FtzVDYaoyo5m5slX8wzm-72" connectable="0" vertex="1">
          <mxGeometry relative="1" as="geometry">
            <mxPoint x="-15" as="offset" />
          </mxGeometry>
        </mxCell>
        <mxCell id="FtzVDYaoyo5m5slX8wzm-74" value="" style="endArrow=classic;html=1;rounded=0;dashed=1;" parent="1" edge="1">
          <mxGeometry relative="1" as="geometry">
            <mxPoint x="745" y="739" as="sourcePoint" />
            <mxPoint x="25" y="739" as="targetPoint" />
          </mxGeometry>
        </mxCell>
        <mxCell id="FtzVDYaoyo5m5slX8wzm-75" value="return" style="edgeLabel;resizable=0;html=1;align=center;verticalAlign=middle;" parent="FtzVDYaoyo5m5slX8wzm-74" connectable="0" vertex="1">
          <mxGeometry relative="1" as="geometry">
            <mxPoint x="-15" as="offset" />
          </mxGeometry>
        </mxCell>
        <mxCell id="FtzVDYaoyo5m5slX8wzm-80" value="" style="endArrow=classic;html=1;rounded=0;" parent="1" target="FtzVDYaoyo5m5slX8wzm-78" edge="1">
          <mxGeometry relative="1" as="geometry">
            <mxPoint x="25" y="559" as="sourcePoint" />
            <mxPoint x="555" y="559.9200000000001" as="targetPoint" />
          </mxGeometry>
        </mxCell>
        <mxCell id="FtzVDYaoyo5m5slX8wzm-81" value="viewProduct" style="edgeLabel;resizable=0;html=1;align=center;verticalAlign=middle;" parent="FtzVDYaoyo5m5slX8wzm-80" connectable="0" vertex="1">
          <mxGeometry relative="1" as="geometry">
            <mxPoint x="-15" as="offset" />
          </mxGeometry>
        </mxCell>
        <mxCell id="FtzVDYaoyo5m5slX8wzm-82" value="" style="endArrow=classic;html=1;rounded=0;dashed=1;" parent="1" source="FtzVDYaoyo5m5slX8wzm-78" edge="1">
          <mxGeometry relative="1" as="geometry">
            <mxPoint x="555" y="579.9200000000001" as="sourcePoint" />
            <mxPoint x="26" y="580" as="targetPoint" />
          </mxGeometry>
        </mxCell>
        <mxCell id="FtzVDYaoyo5m5slX8wzm-83" value="return" style="edgeLabel;resizable=0;html=1;align=center;verticalAlign=middle;" parent="FtzVDYaoyo5m5slX8wzm-82" connectable="0" vertex="1">
          <mxGeometry relative="1" as="geometry">
            <mxPoint x="-15" as="offset" />
          </mxGeometry>
        </mxCell>
        <mxCell id="eIc7a8zzQg1Sa1_WoRTr-4" value="Orders" style="rounded=0;whiteSpace=wrap;html=1;fillColor=#fa6800;fontColor=#000000;strokeColor=#C73500;" vertex="1" parent="1">
          <mxGeometry x="690" y="60" width="120" height="60" as="geometry" />
        </mxCell>
        <mxCell id="eIc7a8zzQg1Sa1_WoRTr-5" value="" style="endArrow=none;dashed=1;html=1;rounded=0;entryX=0.5;entryY=1;entryDx=0;entryDy=0;" edge="1" parent="1" source="eIc7a8zzQg1Sa1_WoRTr-71">
          <mxGeometry width="50" height="50" relative="1" as="geometry">
            <mxPoint x="749.64" y="1170.6956946331522" as="sourcePoint" />
            <mxPoint x="749.64" y="120" as="targetPoint" />
            <Array as="points" />
          </mxGeometry>
        </mxCell>
        <mxCell id="eIc7a8zzQg1Sa1_WoRTr-8" value="Forum" style="rounded=0;whiteSpace=wrap;html=1;fillColor=#fa6800;fontColor=#000000;strokeColor=#C73500;" vertex="1" parent="1">
          <mxGeometry x="880" y="60" width="120" height="60" as="geometry" />
        </mxCell>
        <mxCell id="eIc7a8zzQg1Sa1_WoRTr-9" value="" style="endArrow=none;dashed=1;html=1;rounded=0;" edge="1" parent="1" source="eIc7a8zzQg1Sa1_WoRTr-33">
          <mxGeometry width="50" height="50" relative="1" as="geometry">
            <mxPoint x="1130" y="1170" as="sourcePoint" />
            <mxPoint x="1129.58" y="120" as="targetPoint" />
          </mxGeometry>
        </mxCell>
        <mxCell id="eIc7a8zzQg1Sa1_WoRTr-10" value="" style="endArrow=classic;html=1;rounded=0;" edge="1" parent="1" target="eIc7a8zzQg1Sa1_WoRTr-14">
          <mxGeometry relative="1" as="geometry">
            <mxPoint x="25" y="829" as="sourcePoint" />
            <mxPoint x="540" y="829" as="targetPoint" />
          </mxGeometry>
        </mxCell>
        <mxCell id="eIc7a8zzQg1Sa1_WoRTr-11" value="browsingForum" style="edgeLabel;resizable=0;html=1;align=center;verticalAlign=middle;" connectable="0" vertex="1" parent="eIc7a8zzQg1Sa1_WoRTr-10">
          <mxGeometry relative="1" as="geometry">
            <mxPoint x="-15" as="offset" />
          </mxGeometry>
        </mxCell>
        <mxCell id="eIc7a8zzQg1Sa1_WoRTr-12" value="" style="endArrow=classic;html=1;rounded=0;dashed=1;" edge="1" parent="1" source="eIc7a8zzQg1Sa1_WoRTr-14">
          <mxGeometry relative="1" as="geometry">
            <mxPoint x="540" y="850" as="sourcePoint" />
            <mxPoint x="25" y="849" as="targetPoint" />
          </mxGeometry>
        </mxCell>
        <mxCell id="eIc7a8zzQg1Sa1_WoRTr-13" value="return" style="edgeLabel;resizable=0;html=1;align=center;verticalAlign=middle;" connectable="0" vertex="1" parent="eIc7a8zzQg1Sa1_WoRTr-12">
          <mxGeometry relative="1" as="geometry">
            <mxPoint x="-15" as="offset" />
          </mxGeometry>
        </mxCell>
        <mxCell id="eIc7a8zzQg1Sa1_WoRTr-14" value="" style="html=1;points=[[0,0,0,0,5],[0,1,0,0,-5],[1,0,0,0,5],[1,1,0,0,-5]];perimeter=orthogonalPerimeter;outlineConnect=0;targetShapes=umlLifeline;portConstraint=eastwest;newEdgeStyle={&quot;curved&quot;:0,&quot;rounded&quot;:0};fillColor=#e1d5e7;strokeColor=#9673a6;" vertex="1" parent="1">
          <mxGeometry x="935" y="800" width="10" height="70" as="geometry" />
        </mxCell>
        <mxCell id="eIc7a8zzQg1Sa1_WoRTr-21" value="" style="endArrow=classic;html=1;rounded=0;" edge="1" parent="1">
          <mxGeometry relative="1" as="geometry">
            <mxPoint x="130" y="1031" as="sourcePoint" />
            <mxPoint x="555" y="1031" as="targetPoint" />
          </mxGeometry>
        </mxCell>
        <mxCell id="eIc7a8zzQg1Sa1_WoRTr-22" value="viewProduct" style="edgeLabel;resizable=0;html=1;align=center;verticalAlign=middle;" connectable="0" vertex="1" parent="eIc7a8zzQg1Sa1_WoRTr-21">
          <mxGeometry relative="1" as="geometry">
            <mxPoint x="-15" as="offset" />
          </mxGeometry>
        </mxCell>
        <mxCell id="eIc7a8zzQg1Sa1_WoRTr-24" value="" style="endArrow=classic;html=1;rounded=0;dashed=1;" edge="1" parent="1">
          <mxGeometry relative="1" as="geometry">
            <mxPoint x="555" y="1051" as="sourcePoint" />
            <mxPoint x="130" y="1051" as="targetPoint" />
          </mxGeometry>
        </mxCell>
        <mxCell id="eIc7a8zzQg1Sa1_WoRTr-25" value="return" style="edgeLabel;resizable=0;html=1;align=center;verticalAlign=middle;" connectable="0" vertex="1" parent="eIc7a8zzQg1Sa1_WoRTr-24">
          <mxGeometry relative="1" as="geometry">
            <mxPoint x="-15" as="offset" />
          </mxGeometry>
        </mxCell>
        <mxCell id="eIc7a8zzQg1Sa1_WoRTr-27" value="" style="endArrow=classic;html=1;rounded=0;dashed=1;" edge="1" parent="1" source="eIc7a8zzQg1Sa1_WoRTr-71">
          <mxGeometry relative="1" as="geometry">
            <mxPoint x="690" y="650" as="sourcePoint" />
            <mxPoint x="25" y="650" as="targetPoint" />
          </mxGeometry>
        </mxCell>
        <mxCell id="eIc7a8zzQg1Sa1_WoRTr-28" value="return" style="edgeLabel;resizable=0;html=1;align=center;verticalAlign=middle;" connectable="0" vertex="1" parent="eIc7a8zzQg1Sa1_WoRTr-27">
          <mxGeometry relative="1" as="geometry">
            <mxPoint x="-15" as="offset" />
          </mxGeometry>
        </mxCell>
        <mxCell id="eIc7a8zzQg1Sa1_WoRTr-29" value="" style="endArrow=classic;html=1;rounded=0;" edge="1" parent="1" target="eIc7a8zzQg1Sa1_WoRTr-33">
          <mxGeometry relative="1" as="geometry">
            <mxPoint x="130" y="1111" as="sourcePoint" />
            <mxPoint x="560" y="1111" as="targetPoint" />
          </mxGeometry>
        </mxCell>
        <mxCell id="eIc7a8zzQg1Sa1_WoRTr-30" value="viewCart" style="edgeLabel;resizable=0;html=1;align=center;verticalAlign=middle;" connectable="0" vertex="1" parent="eIc7a8zzQg1Sa1_WoRTr-29">
          <mxGeometry relative="1" as="geometry">
            <mxPoint x="-15" as="offset" />
          </mxGeometry>
        </mxCell>
        <mxCell id="eIc7a8zzQg1Sa1_WoRTr-31" value="" style="endArrow=classic;html=1;rounded=0;dashed=1;" edge="1" parent="1" source="eIc7a8zzQg1Sa1_WoRTr-33">
          <mxGeometry relative="1" as="geometry">
            <mxPoint x="466" y="1131" as="sourcePoint" />
            <mxPoint x="131" y="1131" as="targetPoint" />
          </mxGeometry>
        </mxCell>
        <mxCell id="eIc7a8zzQg1Sa1_WoRTr-32" value="return" style="edgeLabel;resizable=0;html=1;align=center;verticalAlign=middle;" connectable="0" vertex="1" parent="eIc7a8zzQg1Sa1_WoRTr-31">
          <mxGeometry relative="1" as="geometry">
            <mxPoint x="-15" as="offset" />
          </mxGeometry>
        </mxCell>
        <mxCell id="eIc7a8zzQg1Sa1_WoRTr-36" value="" style="endArrow=classic;html=1;rounded=0;" edge="1" parent="1" target="eIc7a8zzQg1Sa1_WoRTr-38">
          <mxGeometry relative="1" as="geometry">
            <mxPoint x="565" y="1021" as="sourcePoint" />
            <mxPoint x="1130" y="1021" as="targetPoint" />
            <Array as="points">
              <mxPoint x="590" y="1021" />
            </Array>
          </mxGeometry>
        </mxCell>
        <mxCell id="eIc7a8zzQg1Sa1_WoRTr-37" value="addProduct" style="edgeLabel;resizable=0;html=1;align=center;verticalAlign=middle;" connectable="0" vertex="1" parent="eIc7a8zzQg1Sa1_WoRTr-36">
          <mxGeometry relative="1" as="geometry">
            <mxPoint x="-15" as="offset" />
          </mxGeometry>
        </mxCell>
        <mxCell id="eIc7a8zzQg1Sa1_WoRTr-38" value="" style="html=1;points=[[0,0,0,0,5],[0,1,0,0,-5],[1,0,0,0,5],[1,1,0,0,-5]];perimeter=orthogonalPerimeter;outlineConnect=0;targetShapes=umlLifeline;portConstraint=eastwest;newEdgeStyle={&quot;curved&quot;:0,&quot;rounded&quot;:0};fillColor=#e51400;strokeColor=#B20000;fontColor=#ffffff;" vertex="1" parent="1">
          <mxGeometry x="1125" y="1001" width="10" height="60" as="geometry" />
        </mxCell>
        <mxCell id="eIc7a8zzQg1Sa1_WoRTr-45" value="" style="html=1;align=left;spacingLeft=2;endArrow=block;rounded=0;edgeStyle=orthogonalEdgeStyle;curved=0;rounded=0;" edge="1" parent="1">
          <mxGeometry relative="1" as="geometry">
            <mxPoint x="131" y="905.97" as="sourcePoint" />
            <Array as="points">
              <mxPoint x="161" y="935.97" />
            </Array>
            <mxPoint x="130" y="935.97" as="targetPoint" />
          </mxGeometry>
        </mxCell>
        <mxCell id="eIc7a8zzQg1Sa1_WoRTr-47" value="login" style="edgeLabel;html=1;align=center;verticalAlign=middle;resizable=0;points=[];" vertex="1" connectable="0" parent="eIc7a8zzQg1Sa1_WoRTr-45">
          <mxGeometry x="-0.1094" y="1" relative="1" as="geometry">
            <mxPoint as="offset" />
          </mxGeometry>
        </mxCell>
        <mxCell id="eIc7a8zzQg1Sa1_WoRTr-49" value="" style="endArrow=classic;html=1;rounded=0;dashed=1;" edge="1" parent="1">
          <mxGeometry relative="1" as="geometry">
            <mxPoint x="1125" y="1041" as="sourcePoint" />
            <mxPoint x="565" y="1041" as="targetPoint" />
          </mxGeometry>
        </mxCell>
        <mxCell id="eIc7a8zzQg1Sa1_WoRTr-50" value="return" style="edgeLabel;resizable=0;html=1;align=center;verticalAlign=middle;" connectable="0" vertex="1" parent="eIc7a8zzQg1Sa1_WoRTr-49">
          <mxGeometry relative="1" as="geometry">
            <mxPoint x="-15" as="offset" />
          </mxGeometry>
        </mxCell>
        <mxCell id="eIc7a8zzQg1Sa1_WoRTr-52" value="" style="endArrow=classic;html=1;rounded=0;" edge="1" parent="1">
          <mxGeometry relative="1" as="geometry">
            <mxPoint x="125" y="970" as="sourcePoint" />
            <mxPoint x="935" y="970" as="targetPoint" />
          </mxGeometry>
        </mxCell>
        <mxCell id="eIc7a8zzQg1Sa1_WoRTr-53" value="browsingForum" style="edgeLabel;resizable=0;html=1;align=center;verticalAlign=middle;" connectable="0" vertex="1" parent="eIc7a8zzQg1Sa1_WoRTr-52">
          <mxGeometry relative="1" as="geometry">
            <mxPoint x="-15" as="offset" />
          </mxGeometry>
        </mxCell>
        <mxCell id="eIc7a8zzQg1Sa1_WoRTr-54" value="" style="endArrow=classic;html=1;rounded=0;dashed=1;" edge="1" parent="1">
          <mxGeometry relative="1" as="geometry">
            <mxPoint x="935" y="991" as="sourcePoint" />
            <mxPoint x="125" y="991" as="targetPoint" />
          </mxGeometry>
        </mxCell>
        <mxCell id="eIc7a8zzQg1Sa1_WoRTr-55" value="return" style="edgeLabel;resizable=0;html=1;align=center;verticalAlign=middle;" connectable="0" vertex="1" parent="eIc7a8zzQg1Sa1_WoRTr-54">
          <mxGeometry relative="1" as="geometry">
            <mxPoint x="-15" as="offset" />
          </mxGeometry>
        </mxCell>
        <mxCell id="eIc7a8zzQg1Sa1_WoRTr-57" value="" style="endArrow=none;dashed=1;html=1;rounded=0;entryX=0.5;entryY=1;entryDx=0;entryDy=0;" edge="1" parent="1" source="FtzVDYaoyo5m5slX8wzm-38" target="FtzVDYaoyo5m5slX8wzm-36">
          <mxGeometry width="50" height="50" relative="1" as="geometry">
            <mxPoint x="370" y="1170" as="sourcePoint" />
            <mxPoint x="370" y="120" as="targetPoint" />
          </mxGeometry>
        </mxCell>
        <mxCell id="FtzVDYaoyo5m5slX8wzm-36" value="" style="html=1;points=[[0,0,0,0,5],[0,1,0,0,-5],[1,0,0,0,5],[1,1,0,0,-5]];perimeter=orthogonalPerimeter;outlineConnect=0;targetShapes=umlLifeline;portConstraint=eastwest;newEdgeStyle={&quot;curved&quot;:0,&quot;rounded&quot;:0};fillColor=#d5e8d4;strokeColor=#82b366;" parent="1" vertex="1">
          <mxGeometry x="365" y="160" width="10" height="60" as="geometry" />
        </mxCell>
        <mxCell id="eIc7a8zzQg1Sa1_WoRTr-58" value="" style="endArrow=none;dashed=1;html=1;rounded=0;entryX=0.5;entryY=1;entryDx=0;entryDy=0;" edge="1" parent="1" target="FtzVDYaoyo5m5slX8wzm-38">
          <mxGeometry width="50" height="50" relative="1" as="geometry">
            <mxPoint x="370" y="1170" as="sourcePoint" />
            <mxPoint x="370" y="220" as="targetPoint" />
          </mxGeometry>
        </mxCell>
        <mxCell id="FtzVDYaoyo5m5slX8wzm-38" value="" style="html=1;points=[[0,0,0,0,5],[0,1,0,0,-5],[1,0,0,0,5],[1,1,0,0,-5]];perimeter=orthogonalPerimeter;outlineConnect=0;targetShapes=umlLifeline;portConstraint=eastwest;newEdgeStyle={&quot;curved&quot;:0,&quot;rounded&quot;:0};fillColor=#d5e8d4;strokeColor=#82b366;" parent="1" vertex="1">
          <mxGeometry x="365" y="230" width="10" height="60" as="geometry" />
        </mxCell>
        <mxCell id="FtzVDYaoyo5m5slX8wzm-46" value="" style="html=1;points=[[0,0,0,0,5],[0,1,0,0,-5],[1,0,0,0,5],[1,1,0,0,-5]];perimeter=orthogonalPerimeter;outlineConnect=0;targetShapes=umlLifeline;portConstraint=eastwest;newEdgeStyle={&quot;curved&quot;:0,&quot;rounded&quot;:0};fillColor=#1ba1e2;strokeColor=#006EAF;fontColor=#ffffff;" parent="1" vertex="1">
          <mxGeometry x="555" y="290" width="10" height="60" as="geometry" />
        </mxCell>
        <mxCell id="eIc7a8zzQg1Sa1_WoRTr-63" value="" style="endArrow=none;dashed=1;html=1;rounded=0;" edge="1" parent="1" source="FtzVDYaoyo5m5slX8wzm-46">
          <mxGeometry width="50" height="50" relative="1" as="geometry">
            <mxPoint x="660" y="350" as="sourcePoint" />
            <mxPoint x="559.5699999999999" y="125" as="targetPoint" />
          </mxGeometry>
        </mxCell>
        <mxCell id="eIc7a8zzQg1Sa1_WoRTr-65" value="" style="endArrow=none;dashed=1;html=1;rounded=0;" edge="1" parent="1" target="eIc7a8zzQg1Sa1_WoRTr-64">
          <mxGeometry width="50" height="50" relative="1" as="geometry">
            <mxPoint x="560" y="1170" as="sourcePoint" />
            <mxPoint x="559.5699999999999" y="125" as="targetPoint" />
          </mxGeometry>
        </mxCell>
        <mxCell id="eIc7a8zzQg1Sa1_WoRTr-64" value="" style="html=1;points=[[0,0,0,0,5],[0,1,0,0,-5],[1,0,0,0,5],[1,1,0,0,-5]];perimeter=orthogonalPerimeter;outlineConnect=0;targetShapes=umlLifeline;portConstraint=eastwest;newEdgeStyle={&quot;curved&quot;:0,&quot;rounded&quot;:0};fillColor=#fff2cc;strokeColor=#d6b656;" vertex="1" parent="1">
          <mxGeometry x="555" y="1011" width="10" height="60" as="geometry" />
        </mxCell>
        <mxCell id="eIc7a8zzQg1Sa1_WoRTr-66" value="" style="endArrow=none;dashed=1;html=1;rounded=0;" edge="1" parent="1" source="FtzVDYaoyo5m5slX8wzm-50" target="FtzVDYaoyo5m5slX8wzm-48">
          <mxGeometry width="50" height="50" relative="1" as="geometry">
            <mxPoint x="560" y="950" as="sourcePoint" />
            <mxPoint x="559.5699999999999" y="125" as="targetPoint" />
          </mxGeometry>
        </mxCell>
        <mxCell id="FtzVDYaoyo5m5slX8wzm-48" value="" style="html=1;points=[[0,0,0,0,5],[0,1,0,0,-5],[1,0,0,0,5],[1,1,0,0,-5]];perimeter=orthogonalPerimeter;outlineConnect=0;targetShapes=umlLifeline;portConstraint=eastwest;newEdgeStyle={&quot;curved&quot;:0,&quot;rounded&quot;:0};fillColor=#1ba1e2;strokeColor=#006EAF;fontColor=#ffffff;" parent="1" vertex="1">
          <mxGeometry x="555" y="380" width="10" height="60" as="geometry" />
        </mxCell>
        <mxCell id="eIc7a8zzQg1Sa1_WoRTr-67" value="" style="endArrow=none;dashed=1;html=1;rounded=0;" edge="1" parent="1" source="FtzVDYaoyo5m5slX8wzm-78" target="FtzVDYaoyo5m5slX8wzm-50">
          <mxGeometry width="50" height="50" relative="1" as="geometry">
            <mxPoint x="560" y="950" as="sourcePoint" />
            <mxPoint x="560" y="440" as="targetPoint" />
          </mxGeometry>
        </mxCell>
        <mxCell id="FtzVDYaoyo5m5slX8wzm-50" value="" style="html=1;points=[[0,0,0,0,5],[0,1,0,0,-5],[1,0,0,0,5],[1,1,0,0,-5]];perimeter=orthogonalPerimeter;outlineConnect=0;targetShapes=umlLifeline;portConstraint=eastwest;newEdgeStyle={&quot;curved&quot;:0,&quot;rounded&quot;:0};fillColor=#1ba1e2;strokeColor=#006EAF;fontColor=#ffffff;" parent="1" vertex="1">
          <mxGeometry x="555" y="460" width="10" height="60" as="geometry" />
        </mxCell>
        <mxCell id="eIc7a8zzQg1Sa1_WoRTr-68" value="" style="endArrow=none;dashed=1;html=1;rounded=0;" edge="1" parent="1" source="eIc7a8zzQg1Sa1_WoRTr-64" target="FtzVDYaoyo5m5slX8wzm-78">
          <mxGeometry width="50" height="50" relative="1" as="geometry">
            <mxPoint x="560" y="950" as="sourcePoint" />
            <mxPoint x="560" y="520" as="targetPoint" />
          </mxGeometry>
        </mxCell>
        <mxCell id="FtzVDYaoyo5m5slX8wzm-78" value="" style="html=1;points=[[0,0,0,0,5],[0,1,0,0,-5],[1,0,0,0,5],[1,1,0,0,-5]];perimeter=orthogonalPerimeter;outlineConnect=0;targetShapes=umlLifeline;portConstraint=eastwest;newEdgeStyle={&quot;curved&quot;:0,&quot;rounded&quot;:0};fillColor=#6d8764;strokeColor=#3A5431;fontColor=#ffffff;" parent="1" vertex="1">
          <mxGeometry x="555" y="540" width="10" height="60" as="geometry" />
        </mxCell>
        <mxCell id="eIc7a8zzQg1Sa1_WoRTr-69" value="" style="endArrow=classic;html=1;rounded=0;" edge="1" parent="1" target="eIc7a8zzQg1Sa1_WoRTr-71">
          <mxGeometry relative="1" as="geometry">
            <mxPoint x="25" y="629" as="sourcePoint" />
            <mxPoint x="690" y="629.0000000000001" as="targetPoint" />
          </mxGeometry>
        </mxCell>
        <mxCell id="eIc7a8zzQg1Sa1_WoRTr-70" value="declineOrder" style="edgeLabel;resizable=0;html=1;align=center;verticalAlign=middle;" connectable="0" vertex="1" parent="eIc7a8zzQg1Sa1_WoRTr-69">
          <mxGeometry relative="1" as="geometry">
            <mxPoint x="-15" as="offset" />
          </mxGeometry>
        </mxCell>
        <mxCell id="eIc7a8zzQg1Sa1_WoRTr-72" value="" style="endArrow=none;dashed=1;html=1;rounded=0;entryX=0.5;entryY=1;entryDx=0;entryDy=0;" edge="1" parent="1" source="eIc7a8zzQg1Sa1_WoRTr-6" target="eIc7a8zzQg1Sa1_WoRTr-71">
          <mxGeometry width="50" height="50" relative="1" as="geometry">
            <mxPoint x="749.64" y="1170.6956946331522" as="sourcePoint" />
            <mxPoint x="749.64" y="120" as="targetPoint" />
            <Array as="points" />
          </mxGeometry>
        </mxCell>
        <mxCell id="eIc7a8zzQg1Sa1_WoRTr-71" value="" style="html=1;points=[[0,0,0,0,5],[0,1,0,0,-5],[1,0,0,0,5],[1,1,0,0,-5]];perimeter=orthogonalPerimeter;outlineConnect=0;targetShapes=umlLifeline;portConstraint=eastwest;newEdgeStyle={&quot;curved&quot;:0,&quot;rounded&quot;:0};fillColor=#d80073;strokeColor=#A50040;fontColor=#ffffff;" vertex="1" parent="1">
          <mxGeometry x="745" y="600" width="10" height="70" as="geometry" />
        </mxCell>
        <mxCell id="eIc7a8zzQg1Sa1_WoRTr-73" value="" style="endArrow=none;dashed=1;html=1;rounded=0;" edge="1" parent="1" target="eIc7a8zzQg1Sa1_WoRTr-33">
          <mxGeometry width="50" height="50" relative="1" as="geometry">
            <mxPoint x="1130" y="1170" as="sourcePoint" />
            <mxPoint x="1129.58" y="120" as="targetPoint" />
          </mxGeometry>
        </mxCell>
        <mxCell id="eIc7a8zzQg1Sa1_WoRTr-33" value="" style="html=1;points=[[0,0,0,0,5],[0,1,0,0,-5],[1,0,0,0,5],[1,1,0,0,-5]];perimeter=orthogonalPerimeter;outlineConnect=0;targetShapes=umlLifeline;portConstraint=eastwest;newEdgeStyle={&quot;curved&quot;:0,&quot;rounded&quot;:0};fillColor=#0050ef;strokeColor=#001DBC;fontColor=#ffffff;" vertex="1" parent="1">
          <mxGeometry x="1125" y="1091" width="10" height="60" as="geometry" />
        </mxCell>
        <mxCell id="eIc7a8zzQg1Sa1_WoRTr-74" value="" style="endArrow=none;dashed=1;html=1;rounded=0;entryX=0.5;entryY=1;entryDx=0;entryDy=0;" edge="1" parent="1" target="eIc7a8zzQg1Sa1_WoRTr-6">
          <mxGeometry width="50" height="50" relative="1" as="geometry">
            <mxPoint x="749.64" y="1170.6956946331522" as="sourcePoint" />
            <mxPoint x="750" y="670" as="targetPoint" />
            <Array as="points" />
          </mxGeometry>
        </mxCell>
        <mxCell id="eIc7a8zzQg1Sa1_WoRTr-6" value="" style="html=1;points=[[0,0,0,0,5],[0,1,0,0,-5],[1,0,0,0,5],[1,1,0,0,-5]];perimeter=orthogonalPerimeter;outlineConnect=0;targetShapes=umlLifeline;portConstraint=eastwest;newEdgeStyle={&quot;curved&quot;:0,&quot;rounded&quot;:0};fillColor=#d80073;strokeColor=#A50040;fontColor=#ffffff;" vertex="1" parent="1">
          <mxGeometry x="745" y="690" width="10" height="70" as="geometry" />
        </mxCell>
        <mxCell id="eIc7a8zzQg1Sa1_WoRTr-77" value="" style="endArrow=none;dashed=1;html=1;rounded=0;" edge="1" parent="1" target="FtzVDYaoyo5m5slX8wzm-46">
          <mxGeometry width="50" height="50" relative="1" as="geometry">
            <mxPoint x="559.66" y="380" as="sourcePoint" />
            <mxPoint x="559.66" y="330" as="targetPoint" />
          </mxGeometry>
        </mxCell>
        <mxCell id="eIc7a8zzQg1Sa1_WoRTr-78" value="" style="endArrow=none;dashed=1;html=1;rounded=0;" edge="1" parent="1" target="eIc7a8zzQg1Sa1_WoRTr-56">
          <mxGeometry width="50" height="50" relative="1" as="geometry">
            <mxPoint x="940" y="1170" as="sourcePoint" />
            <mxPoint x="939.5" y="120" as="targetPoint" />
          </mxGeometry>
        </mxCell>
        <mxCell id="eIc7a8zzQg1Sa1_WoRTr-56" value="" style="html=1;points=[[0,0,0,0,5],[0,1,0,0,-5],[1,0,0,0,5],[1,1,0,0,-5]];perimeter=orthogonalPerimeter;outlineConnect=0;targetShapes=umlLifeline;portConstraint=eastwest;newEdgeStyle={&quot;curved&quot;:0,&quot;rounded&quot;:0};fillColor=#e1d5e7;strokeColor=#9673a6;" vertex="1" parent="1">
          <mxGeometry x="935" y="941" width="10" height="70" as="geometry" />
        </mxCell>
        <mxCell id="eIc7a8zzQg1Sa1_WoRTr-79" value="" style="endArrow=none;dashed=1;html=1;rounded=0;" edge="1" parent="1" target="eIc7a8zzQg1Sa1_WoRTr-44">
          <mxGeometry width="50" height="50" relative="1" as="geometry">
            <mxPoint x="125" y="1170" as="sourcePoint" />
            <mxPoint x="125" y="150" as="targetPoint" />
          </mxGeometry>
        </mxCell>
        <mxCell id="eIc7a8zzQg1Sa1_WoRTr-44" value="" style="html=1;points=[[0,0,0,0,5],[0,1,0,0,-5],[1,0,0,0,5],[1,1,0,0,-5]];perimeter=orthogonalPerimeter;outlineConnect=0;targetShapes=umlLifeline;portConstraint=eastwest;newEdgeStyle={&quot;curved&quot;:0,&quot;rounded&quot;:0};fillColor=#f0a30a;fontColor=#000000;strokeColor=#BD7000;" vertex="1" parent="1">
          <mxGeometry x="120" y="901" width="10" height="40" as="geometry" />
        </mxCell>
      </root>
    </mxGraphModel>
  </diagram>
</mxfile>
